<?xml version="1.0" encoding="UTF-8" standalone="no"?>
<!DOCTYPE svg PUBLIC "-//W3C//DTD SVG 1.1//EN"
 "http://www.w3.org/Graphics/SVG/1.1/DTD/svg11.dtd">
<!-- Generated by graphviz version 8.0.3 (20230416.2022)
 -->
<!-- Title: G Pages: 1 -->
<svg width="753pt" height="438pt"
 viewBox="0.00 0.00 753.00 438.00" xmlns="http://www.w3.org/2000/svg" xmlns:xlink="http://www.w3.org/1999/xlink">
<g id="graph0" class="graph" transform="scale(1 1) rotate(0) translate(4 434)">
<title>G</title>
<polygon fill="white" stroke="none" points="-4,4 -4,-434 749,-434 749,4 -4,4"/>
<!-- table -->
<g id="node1" class="node">
<title>table</title>
<polygon fill="none" stroke="black" points="9,-404 9,-425 71,-425 71,-404 9,-404"/>
<text text-anchor="start" x="26" y="-410.8" font-family="Times New Roman,serif" font-size="14.00">Tipo</text>
<polygon fill="none" stroke="black" points="71,-404 71,-425 642,-425 642,-404 71,-404"/>
<text text-anchor="start" x="322.5" y="-410.8" font-family="Times New Roman,serif" font-size="14.00">Descripcion</text>
<polygon fill="none" stroke="black" points="642,-404 642,-425 679,-425 679,-404 642,-404"/>
<text text-anchor="start" x="645" y="-410.8" font-family="Times New Roman,serif" font-size="14.00">Linea</text>
<polygon fill="none" stroke="black" points="679,-404 679,-425 736,-425 736,-404 679,-404"/>
<text text-anchor="start" x="682" y="-410.8" font-family="Times New Roman,serif" font-size="14.00">Columna</text>
<polygon fill="none" stroke="black" points="9,-383 9,-404 71,-404 71,-383 9,-383"/>
<text text-anchor="start" x="12" y="-389.8" font-family="Times New Roman,serif" font-size="14.00">Sintactico</text>
<polygon fill="none" stroke="black" points="71,-383 71,-404 642,-404 642,-383 71,-383"/>
<text text-anchor="start" x="83" y="-389.8" font-family="Times New Roman,serif" font-size="14.00">Error a nivel expresion despues de: &quot;18.6&quot; no cumplio o no entra dentro de la gramatica expresion</text>
<polygon fill="none" stroke="black" points="642,-383 642,-404 679,-404 679,-383 642,-383"/>
<text text-anchor="start" x="657" y="-389.8" font-family="Times New Roman,serif" font-size="14.00">1</text>
<polygon fill="none" stroke="black" points="679,-383 679,-404 736,-404 736,-383 679,-383"/>
<text text-anchor="start" x="700.5" y="-389.8" font-family="Times New Roman,serif" font-size="14.00">16</text>
<polygon fill="none" stroke="black" points="9,-362 9,-383 71,-383 71,-362 9,-362"/>
<text text-anchor="start" x="12" y="-368.8" font-family="Times New Roman,serif" font-size="14.00">Sintactico</text>
<polygon fill="none" stroke="black" points="71,-362 71,-383 642,-383 642,-362 71,-362"/>
<text text-anchor="start" x="82" y="-368.8" font-family="Times New Roman,serif" font-size="14.00">Error a nivel expresion despues de: &quot;print&quot; no cumplio o no entra dentro de la gramatica expresion</text>
<polygon fill="none" stroke="black" points="642,-362 642,-383 679,-383 679,-362 642,-362"/>
<text text-anchor="start" x="657" y="-368.8" font-family="Times New Roman,serif" font-size="14.00">2</text>
<polygon fill="none" stroke="black" points="679,-362 679,-383 736,-383 736,-362 679,-362"/>
<text text-anchor="start" x="704" y="-368.8" font-family="Times New Roman,serif" font-size="14.00">0</text>
<polygon fill="none" stroke="black" points="9,-341 9,-362 71,-362 71,-341 9,-341"/>
<text text-anchor="start" x="12" y="-347.8" font-family="Times New Roman,serif" font-size="14.00">Sintactico</text>
<polygon fill="none" stroke="black" points="71,-341 71,-362 642,-362 642,-341 71,-341"/>
<text text-anchor="start" x="81.5" y="-347.8" font-family="Times New Roman,serif" font-size="14.00">Error a nivel expresion despues de: &quot;edad&quot; no cumplio o no entra dentro de la gramatica expresion</text>
<polygon fill="none" stroke="black" points="642,-341 642,-362 679,-362 679,-341 642,-341"/>
<text text-anchor="start" x="657" y="-347.8" font-family="Times New Roman,serif" font-size="14.00">2</text>
<polygon fill="none" stroke="black" points="679,-341 679,-362 736,-362 736,-341 679,-341"/>
<text text-anchor="start" x="704" y="-347.8" font-family="Times New Roman,serif" font-size="14.00">6</text>
<polygon fill="none" stroke="black" points="9,-320 9,-341 71,-341 71,-320 9,-320"/>
<text text-anchor="start" x="12" y="-326.8" font-family="Times New Roman,serif" font-size="14.00">Sintactico</text>
<polygon fill="none" stroke="black" points="71,-320 71,-341 642,-341 642,-320 71,-320"/>
<text text-anchor="start" x="92.5" y="-326.8" font-family="Times New Roman,serif" font-size="14.00">Error a nivel expresion despues de: &quot;)&quot; no cumplio o no entra dentro de la gramatica expresion</text>
<polygon fill="none" stroke="black" points="642,-320 642,-341 679,-341 679,-320 642,-320"/>
<text text-anchor="start" x="657" y="-326.8" font-family="Times New Roman,serif" font-size="14.00">2</text>
<polygon fill="none" stroke="black" points="679,-320 679,-341 736,-341 736,-320 679,-320"/>
<text text-anchor="start" x="700.5" y="-326.8" font-family="Times New Roman,serif" font-size="14.00">11</text>
<polygon fill="none" stroke="black" points="9,-299 9,-320 71,-320 71,-299 9,-299"/>
<text text-anchor="start" x="12" y="-305.8" font-family="Times New Roman,serif" font-size="14.00">Sintactico</text>
<polygon fill="none" stroke="black" points="71,-299 71,-320 642,-320 642,-299 71,-299"/>
<text text-anchor="start" x="83" y="-305.8" font-family="Times New Roman,serif" font-size="14.00">Error a nivel expresion despues de: &quot;char&quot; no cumplio o no entra dentro de la gramatica expresion</text>
<polygon fill="none" stroke="black" points="642,-299 642,-320 679,-320 679,-299 642,-299"/>
<text text-anchor="start" x="657" y="-305.8" font-family="Times New Roman,serif" font-size="14.00">4</text>
<polygon fill="none" stroke="black" points="679,-299 679,-320 736,-320 736,-299 679,-299"/>
<text text-anchor="start" x="704" y="-305.8" font-family="Times New Roman,serif" font-size="14.00">0</text>
<polygon fill="none" stroke="black" points="9,-278 9,-299 71,-299 71,-278 9,-278"/>
<text text-anchor="start" x="12" y="-284.8" font-family="Times New Roman,serif" font-size="14.00">Sintactico</text>
<polygon fill="none" stroke="black" points="71,-278 71,-299 642,-299 642,-278 71,-278"/>
<text text-anchor="start" x="90.5" y="-284.8" font-family="Times New Roman,serif" font-size="14.00">Error a nivel expresion despues de: &quot;=&quot; no cumplio o no entra dentro de la gramatica expresion</text>
<polygon fill="none" stroke="black" points="642,-278 642,-299 679,-299 679,-278 642,-278"/>
<text text-anchor="start" x="657" y="-284.8" font-family="Times New Roman,serif" font-size="14.00">4</text>
<polygon fill="none" stroke="black" points="679,-278 679,-299 736,-299 736,-278 679,-278"/>
<text text-anchor="start" x="700.5" y="-284.8" font-family="Times New Roman,serif" font-size="14.00">11</text>
<polygon fill="none" stroke="black" points="9,-257 9,-278 71,-278 71,-257 9,-257"/>
<text text-anchor="start" x="12" y="-263.8" font-family="Times New Roman,serif" font-size="14.00">Sintactico</text>
<polygon fill="none" stroke="black" points="71,-257 71,-278 642,-278 642,-257 71,-257"/>
<text text-anchor="start" x="83" y="-263.8" font-family="Times New Roman,serif" font-size="14.00">Error a nivel expresion despues de: &quot;char&quot; no cumplio o no entra dentro de la gramatica expresion</text>
<polygon fill="none" stroke="black" points="642,-257 642,-278 679,-278 679,-257 642,-257"/>
<text text-anchor="start" x="657" y="-263.8" font-family="Times New Roman,serif" font-size="14.00">4</text>
<polygon fill="none" stroke="black" points="679,-257 679,-278 736,-278 736,-257 679,-257"/>
<text text-anchor="start" x="700.5" y="-263.8" font-family="Times New Roman,serif" font-size="14.00">14</text>
<polygon fill="none" stroke="black" points="9,-236 9,-257 71,-257 71,-236 9,-236"/>
<text text-anchor="start" x="12" y="-242.8" font-family="Times New Roman,serif" font-size="14.00">Sintactico</text>
<polygon fill="none" stroke="black" points="71,-236 71,-257 642,-257 642,-236 71,-236"/>
<text text-anchor="start" x="88" y="-242.8" font-family="Times New Roman,serif" font-size="14.00">Error a nivel expresion despues de: &quot;70&quot; no cumplio o no entra dentro de la gramatica expresion</text>
<polygon fill="none" stroke="black" points="642,-236 642,-257 679,-257 679,-236 642,-236"/>
<text text-anchor="start" x="657" y="-242.8" font-family="Times New Roman,serif" font-size="14.00">4</text>
<polygon fill="none" stroke="black" points="679,-236 679,-257 736,-257 736,-236 679,-236"/>
<text text-anchor="start" x="700.5" y="-242.8" font-family="Times New Roman,serif" font-size="14.00">20</text>
<polygon fill="none" stroke="black" points="9,-215 9,-236 71,-236 71,-215 9,-215"/>
<text text-anchor="start" x="12" y="-221.8" font-family="Times New Roman,serif" font-size="14.00">Sintactico</text>
<polygon fill="none" stroke="black" points="71,-215 71,-236 642,-236 642,-215 71,-215"/>
<text text-anchor="start" x="82" y="-221.8" font-family="Times New Roman,serif" font-size="14.00">Error a nivel expresion despues de: &quot;print&quot; no cumplio o no entra dentro de la gramatica expresion</text>
<polygon fill="none" stroke="black" points="642,-215 642,-236 679,-236 679,-215 642,-215"/>
<text text-anchor="start" x="657" y="-221.8" font-family="Times New Roman,serif" font-size="14.00">5</text>
<polygon fill="none" stroke="black" points="679,-215 679,-236 736,-236 736,-215 679,-215"/>
<text text-anchor="start" x="704" y="-221.8" font-family="Times New Roman,serif" font-size="14.00">0</text>
<polygon fill="none" stroke="black" points="9,-194 9,-215 71,-215 71,-194 9,-194"/>
<text text-anchor="start" x="12" y="-200.8" font-family="Times New Roman,serif" font-size="14.00">Sintactico</text>
<polygon fill="none" stroke="black" points="71,-194 71,-215 642,-215 642,-194 71,-194"/>
<text text-anchor="start" x="83" y="-200.8" font-family="Times New Roman,serif" font-size="14.00">Error a nivel expresion despues de: &quot;letra&quot; no cumplio o no entra dentro de la gramatica expresion</text>
<polygon fill="none" stroke="black" points="642,-194 642,-215 679,-215 679,-194 642,-194"/>
<text text-anchor="start" x="657" y="-200.8" font-family="Times New Roman,serif" font-size="14.00">5</text>
<polygon fill="none" stroke="black" points="679,-194 679,-215 736,-215 736,-194 679,-194"/>
<text text-anchor="start" x="704" y="-200.8" font-family="Times New Roman,serif" font-size="14.00">6</text>
<polygon fill="none" stroke="black" points="9,-173 9,-194 71,-194 71,-173 9,-173"/>
<text text-anchor="start" x="12" y="-179.8" font-family="Times New Roman,serif" font-size="14.00">Sintactico</text>
<polygon fill="none" stroke="black" points="71,-173 71,-194 642,-194 642,-173 71,-173"/>
<text text-anchor="start" x="92.5" y="-179.8" font-family="Times New Roman,serif" font-size="14.00">Error a nivel expresion despues de: &quot;)&quot; no cumplio o no entra dentro de la gramatica expresion</text>
<polygon fill="none" stroke="black" points="642,-173 642,-194 679,-194 679,-173 642,-173"/>
<text text-anchor="start" x="657" y="-179.8" font-family="Times New Roman,serif" font-size="14.00">5</text>
<polygon fill="none" stroke="black" points="679,-173 679,-194 736,-194 736,-173 679,-173"/>
<text text-anchor="start" x="700.5" y="-179.8" font-family="Times New Roman,serif" font-size="14.00">12</text>
<polygon fill="none" stroke="black" points="9,-152 9,-173 71,-173 71,-152 9,-152"/>
<text text-anchor="start" x="12" y="-158.8" font-family="Times New Roman,serif" font-size="14.00">Sintactico</text>
<polygon fill="none" stroke="black" points="71,-152 71,-173 642,-173 642,-152 71,-152"/>
<text text-anchor="start" x="75.5" y="-158.8" font-family="Times New Roman,serif" font-size="14.00">Error a nivel expresion despues de: &quot;double&quot; no cumplio o no entra dentro de la gramatica expresion</text>
<polygon fill="none" stroke="black" points="642,-152 642,-173 679,-173 679,-152 642,-152"/>
<text text-anchor="start" x="657" y="-158.8" font-family="Times New Roman,serif" font-size="14.00">7</text>
<polygon fill="none" stroke="black" points="679,-152 679,-173 736,-173 736,-152 679,-152"/>
<text text-anchor="start" x="704" y="-158.8" font-family="Times New Roman,serif" font-size="14.00">0</text>
<polygon fill="none" stroke="black" points="9,-131 9,-152 71,-152 71,-131 9,-131"/>
<text text-anchor="start" x="12" y="-137.8" font-family="Times New Roman,serif" font-size="14.00">Sintactico</text>
<polygon fill="none" stroke="black" points="71,-131 71,-152 642,-152 642,-131 71,-131"/>
<text text-anchor="start" x="90.5" y="-137.8" font-family="Times New Roman,serif" font-size="14.00">Error a nivel expresion despues de: &quot;=&quot; no cumplio o no entra dentro de la gramatica expresion</text>
<polygon fill="none" stroke="black" points="642,-131 642,-152 679,-152 679,-131 642,-131"/>
<text text-anchor="start" x="657" y="-137.8" font-family="Times New Roman,serif" font-size="14.00">7</text>
<polygon fill="none" stroke="black" points="679,-131 679,-152 736,-152 736,-131 679,-131"/>
<text text-anchor="start" x="700.5" y="-137.8" font-family="Times New Roman,serif" font-size="14.00">14</text>
<polygon fill="none" stroke="black" points="9,-110 9,-131 71,-131 71,-110 9,-110"/>
<text text-anchor="start" x="12" y="-116.8" font-family="Times New Roman,serif" font-size="14.00">Sintactico</text>
<polygon fill="none" stroke="black" points="71,-110 71,-131 642,-131 642,-110 71,-110"/>
<text text-anchor="start" x="75.5" y="-116.8" font-family="Times New Roman,serif" font-size="14.00">Error a nivel expresion despues de: &quot;double&quot; no cumplio o no entra dentro de la gramatica expresion</text>
<polygon fill="none" stroke="black" points="642,-110 642,-131 679,-131 679,-110 642,-110"/>
<text text-anchor="start" x="657" y="-116.8" font-family="Times New Roman,serif" font-size="14.00">7</text>
<polygon fill="none" stroke="black" points="679,-110 679,-131 736,-131 736,-110 679,-110"/>
<text text-anchor="start" x="700.5" y="-116.8" font-family="Times New Roman,serif" font-size="14.00">17</text>
<polygon fill="none" stroke="black" points="9,-89 9,-110 71,-110 71,-89 9,-89"/>
<text text-anchor="start" x="12" y="-95.8" font-family="Times New Roman,serif" font-size="14.00">Sintactico</text>
<polygon fill="none" stroke="black" points="71,-89 71,-110 642,-110 642,-89 71,-89"/>
<text text-anchor="start" x="88" y="-95.8" font-family="Times New Roman,serif" font-size="14.00">Error a nivel expresion despues de: &quot;16&quot; no cumplio o no entra dentro de la gramatica expresion</text>
<polygon fill="none" stroke="black" points="642,-89 642,-110 679,-110 679,-89 642,-89"/>
<text text-anchor="start" x="657" y="-95.8" font-family="Times New Roman,serif" font-size="14.00">7</text>
<polygon fill="none" stroke="black" points="679,-89 679,-110 736,-110 736,-89 679,-89"/>
<text text-anchor="start" x="700.5" y="-95.8" font-family="Times New Roman,serif" font-size="14.00">25</text>
<polygon fill="none" stroke="black" points="9,-68 9,-89 71,-89 71,-68 9,-68"/>
<text text-anchor="start" x="12" y="-74.8" font-family="Times New Roman,serif" font-size="14.00">Sintactico</text>
<polygon fill="none" stroke="black" points="71,-68 71,-89 642,-89 642,-68 71,-68"/>
<text text-anchor="start" x="82" y="-74.8" font-family="Times New Roman,serif" font-size="14.00">Error a nivel expresion despues de: &quot;print&quot; no cumplio o no entra dentro de la gramatica expresion</text>
<polygon fill="none" stroke="black" points="642,-68 642,-89 679,-89 679,-68 642,-68"/>
<text text-anchor="start" x="657" y="-74.8" font-family="Times New Roman,serif" font-size="14.00">8</text>
<polygon fill="none" stroke="black" points="679,-68 679,-89 736,-89 736,-68 679,-68"/>
<text text-anchor="start" x="704" y="-74.8" font-family="Times New Roman,serif" font-size="14.00">0</text>
<polygon fill="none" stroke="black" points="9,-47 9,-68 71,-68 71,-47 9,-47"/>
<text text-anchor="start" x="12" y="-53.8" font-family="Times New Roman,serif" font-size="14.00">Sintactico</text>
<polygon fill="none" stroke="black" points="71,-47 71,-68 642,-68 642,-47 71,-47"/>
<text text-anchor="start" x="74" y="-53.8" font-family="Times New Roman,serif" font-size="14.00">Error a nivel expresion despues de: &quot;numero&quot; no cumplio o no entra dentro de la gramatica expresion</text>
<polygon fill="none" stroke="black" points="642,-47 642,-68 679,-68 679,-47 642,-47"/>
<text text-anchor="start" x="657" y="-53.8" font-family="Times New Roman,serif" font-size="14.00">8</text>
<polygon fill="none" stroke="black" points="679,-47 679,-68 736,-68 736,-47 679,-47"/>
<text text-anchor="start" x="704" y="-53.8" font-family="Times New Roman,serif" font-size="14.00">6</text>
<polygon fill="none" stroke="black" points="9,-26 9,-47 71,-47 71,-26 9,-26"/>
<text text-anchor="start" x="12" y="-32.8" font-family="Times New Roman,serif" font-size="14.00">Sintactico</text>
<polygon fill="none" stroke="black" points="71,-26 71,-47 642,-47 642,-26 71,-26"/>
<text text-anchor="start" x="92.5" y="-32.8" font-family="Times New Roman,serif" font-size="14.00">Error a nivel expresion despues de: &quot;)&quot; no cumplio o no entra dentro de la gramatica expresion</text>
<polygon fill="none" stroke="black" points="642,-26 642,-47 679,-47 679,-26 642,-26"/>
<text text-anchor="start" x="657" y="-32.8" font-family="Times New Roman,serif" font-size="14.00">8</text>
<polygon fill="none" stroke="black" points="679,-26 679,-47 736,-47 736,-26 679,-26"/>
<text text-anchor="start" x="700.5" y="-32.8" font-family="Times New Roman,serif" font-size="14.00">13</text>
<polygon fill="none" stroke="black" points="9,-5 9,-26 71,-26 71,-5 9,-5"/>
<text text-anchor="start" x="12" y="-11.8" font-family="Times New Roman,serif" font-size="14.00">Sintactico</text>
<polygon fill="none" stroke="black" points="71,-5 71,-26 642,-26 642,-5 71,-5"/>
<text text-anchor="start" x="95" y="-11.8" font-family="Times New Roman,serif" font-size="14.00">Error a nivel expresion despues de: &quot;&quot; no cumplio o no entra dentro de la gramatica expresion</text>
<polygon fill="none" stroke="black" points="642,-5 642,-26 679,-26 679,-5 642,-5"/>
<text text-anchor="start" x="657" y="-11.8" font-family="Times New Roman,serif" font-size="14.00">9</text>
<polygon fill="none" stroke="black" points="679,-5 679,-26 736,-26 736,-5 679,-5"/>
<text text-anchor="start" x="704" y="-11.8" font-family="Times New Roman,serif" font-size="14.00">0</text>
<polygon fill="none" stroke="black" points="8,-4 8,-426 737,-426 737,-4 8,-4"/>
</g>
</g>
</svg>
