<?xml version="1.0" encoding="UTF-8" standalone="no"?>
<!DOCTYPE svg PUBLIC "-//W3C//DTD SVG 1.1//EN"
 "http://www.w3.org/Graphics/SVG/1.1/DTD/svg11.dtd">
<!-- Generated by graphviz version 8.0.3 (20230416.2022)
 -->
<!-- Title: G Pages: 1 -->
<svg width="297pt" height="102pt"
 viewBox="0.00 0.00 297.00 102.00" xmlns="http://www.w3.org/2000/svg" xmlns:xlink="http://www.w3.org/1999/xlink">
<g id="graph0" class="graph" transform="scale(1 1) rotate(0) translate(4 98)">
<title>G</title>
<polygon fill="white" stroke="none" points="-4,4 -4,-98 293,-98 293,4 -4,4"/>
<!-- table -->
<g id="node1" class="node">
<title>table</title>
<polygon fill="none" stroke="black" points="9,-68 9,-89 87,-89 87,-68 9,-68"/>
<text text-anchor="start" x="12" y="-74.8" font-family="Times New Roman,serif" font-size="14.00">Identificador</text>
<polygon fill="none" stroke="black" points="87,-68 87,-89 139,-89 139,-68 87,-68"/>
<text text-anchor="start" x="99" y="-74.8" font-family="Times New Roman,serif" font-size="14.00">Tipo</text>
<polygon fill="none" stroke="black" points="139,-68 139,-89 186,-89 186,-68 139,-68"/>
<text text-anchor="start" x="148.5" y="-74.8" font-family="Times New Roman,serif" font-size="14.00">Tipo</text>
<polygon fill="none" stroke="black" points="186,-68 186,-89 223,-89 223,-68 186,-68"/>
<text text-anchor="start" x="189" y="-74.8" font-family="Times New Roman,serif" font-size="14.00">Linea</text>
<polygon fill="none" stroke="black" points="223,-68 223,-89 280,-89 280,-68 223,-68"/>
<text text-anchor="start" x="226" y="-74.8" font-family="Times New Roman,serif" font-size="14.00">Columna</text>
<polygon fill="none" stroke="black" points="9,-47 9,-68 87,-68 87,-47 9,-47"/>
<text text-anchor="start" x="34" y="-53.8" font-family="Times New Roman,serif" font-size="14.00">edad</text>
<polygon fill="none" stroke="black" points="87,-47 87,-68 139,-68 139,-47 87,-47"/>
<text text-anchor="start" x="90" y="-53.8" font-family="Times New Roman,serif" font-size="14.00">Variable</text>
<polygon fill="none" stroke="black" points="139,-47 139,-68 186,-68 186,-47 139,-47"/>
<text text-anchor="start" x="144" y="-53.8" font-family="Times New Roman,serif" font-size="14.00">Entero</text>
<polygon fill="none" stroke="black" points="186,-47 186,-68 223,-68 223,-47 186,-47"/>
<text text-anchor="start" x="201" y="-53.8" font-family="Times New Roman,serif" font-size="14.00">1</text>
<polygon fill="none" stroke="black" points="223,-47 223,-68 280,-68 280,-47 223,-47"/>
<text text-anchor="start" x="248" y="-53.8" font-family="Times New Roman,serif" font-size="14.00">4</text>
<polygon fill="none" stroke="black" points="9,-26 9,-47 87,-47 87,-26 9,-26"/>
<text text-anchor="start" x="36" y="-32.8" font-family="Times New Roman,serif" font-size="14.00">letra</text>
<polygon fill="none" stroke="black" points="87,-26 87,-47 139,-47 139,-26 87,-26"/>
<text text-anchor="start" x="90" y="-32.8" font-family="Times New Roman,serif" font-size="14.00">Variable</text>
<polygon fill="none" stroke="black" points="139,-26 139,-47 186,-47 186,-26 139,-26"/>
<text text-anchor="start" x="148.5" y="-32.8" font-family="Times New Roman,serif" font-size="14.00">Char</text>
<polygon fill="none" stroke="black" points="186,-26 186,-47 223,-47 223,-26 186,-26"/>
<text text-anchor="start" x="201" y="-32.8" font-family="Times New Roman,serif" font-size="14.00">4</text>
<polygon fill="none" stroke="black" points="223,-26 223,-47 280,-47 280,-26 223,-26"/>
<text text-anchor="start" x="248" y="-32.8" font-family="Times New Roman,serif" font-size="14.00">5</text>
<polygon fill="none" stroke="black" points="9,-5 9,-26 87,-26 87,-5 9,-5"/>
<text text-anchor="start" x="26.5" y="-11.8" font-family="Times New Roman,serif" font-size="14.00">numero</text>
<polygon fill="none" stroke="black" points="87,-5 87,-26 139,-26 139,-5 87,-5"/>
<text text-anchor="start" x="90" y="-11.8" font-family="Times New Roman,serif" font-size="14.00">Variable</text>
<polygon fill="none" stroke="black" points="139,-5 139,-26 186,-26 186,-5 139,-5"/>
<text text-anchor="start" x="142" y="-11.8" font-family="Times New Roman,serif" font-size="14.00">Double</text>
<polygon fill="none" stroke="black" points="186,-5 186,-26 223,-26 223,-5 186,-5"/>
<text text-anchor="start" x="201" y="-11.8" font-family="Times New Roman,serif" font-size="14.00">7</text>
<polygon fill="none" stroke="black" points="223,-5 223,-26 280,-26 280,-5 223,-5"/>
<text text-anchor="start" x="248" y="-11.8" font-family="Times New Roman,serif" font-size="14.00">7</text>
<polygon fill="none" stroke="black" points="8,-4 8,-90 281,-90 281,-4 8,-4"/>
</g>
</g>
</svg>
